<svg xmlns="http://www.w3.org/2000/svg" viewBox="0 0 200 320" fill="none" stroke="#f5efe4" stroke-width="1.2" stroke-linecap="round">
  <path d="M100 10 C 96 60, 108 100, 92 150 S 104 240, 96 310" />
  <path d="M96 60 C 70 55, 55 40, 50 20" />
  <path d="M104 90 C 130 85, 148 68, 155 46" />
  <path d="M98 130 C 72 128, 55 115, 46 96" />
  <path d="M100 165 C 126 162, 145 148, 154 128" />
  <path d="M94 205 C 68 203, 50 190, 40 170" />
  <path d="M99 245 C 124 242, 142 228, 150 208" />
  <path d="M97 280 C 74 279, 58 268, 49 250" />
  <g>
    <circle cx="50" cy="20" r="7" />
    <circle cx="38" cy="14" r="5" />
    <circle cx="58" cy="10" r="5" />
    <circle cx="46" cy="8" r="4" />
  </g>
  <g>
    <circle cx="155" cy="46" r="6" />
    <circle cx="146" cy="38" r="4.5" />
    <circle cx="163" cy="40" r="4.5" />
  </g>
  <g>
    <circle cx="40" cy="170" r="6.5" />
    <circle cx="30" cy="163" r="4.5" />
    <circle cx="47" cy="158" r="4.5" />
  </g>
  <g>
    <circle cx="150" cy="208" r="6" />
    <circle cx="141" cy="200" r="4.5" />
    <circle cx="158" cy="202" r="4.5" />
  </g>
  <g>
    <circle cx="49" cy="250" r="6.5" />
    <circle cx="39" cy="243" r="4.5" />
    <circle cx="56" cy="240" r="4.5" />
  </g>
  <path d="M50 20 q6 -10 14 -4" />
  <path d="M155 46 q7 -8 15 -2" />
  <path d="M40 170 q-8 -6 -4 -16" />
  <path d="M150 208 q8 -6 4 -16" />
</svg>
